%
M48
M72
T01C0.0354
T02C0.0400
%
T01
X14610Y12806
X12110Y12806
X10110Y13806
X9110Y11806
X6110Y16806
X4110Y6306
X3610Y3806
X13610Y16306
T02
X1610Y4806
X2610Y4806
X3610Y4806
X4610Y4806
X5610Y4806
X5610Y5806
X6610Y4806
X7610Y4806
X8610Y4806
X9610Y4806
X10610Y4806
X11610Y4806
X12610Y4806
X12610Y5806
X12610Y6806
X12610Y7806
X12610Y8806
X12610Y9806
X12610Y10806
X11610Y10806
X10610Y10806
X9610Y10806
X8610Y10806
X7610Y10806
X6610Y10806
X5610Y10806
X5610Y9806
X4610Y10806
X3610Y10806
X2610Y10806
X1610Y10806
X1610Y13806
X1610Y14806
X1610Y15806
X1610Y16806
X1610Y17806
X1610Y18806
X1610Y19806
X4110Y19806
X4110Y20806
X4110Y21806
X4110Y18806
X4110Y17806
X4110Y16806
X4110Y15806
X4110Y14806
X4110Y13806
X12110Y13806
X12110Y14806
X12110Y15806
X12110Y16806
X12110Y17806
X12110Y18806
X12110Y19806
X12110Y20806
X12110Y21806
X14110Y20806
X14110Y19806
X14110Y18806
M30
