G75*
G70*
%OFA0B0*%
%FSLAX24Y24*%
%IPPOS*%
%LPD*%
%AMOC8*
5,1,8,0,0,1.08239X$1,22.5*
%
%ADD10R,0.0740X0.0740*%
%ADD11C,0.0740*%
%ADD12C,0.0600*%
%ADD13C,0.0160*%
%ADD14C,0.0100*%
%ADD15C,0.0531*%
D10*
X001610Y004806D03*
D11*
X002610Y004806D03*
X003610Y004806D03*
X004610Y004806D03*
X005610Y004806D03*
X005610Y005806D03*
X006610Y004806D03*
X007610Y004806D03*
X008610Y004806D03*
X009610Y004806D03*
X010610Y004806D03*
X011610Y004806D03*
X012610Y004806D03*
X012610Y005806D03*
X012610Y006806D03*
X012610Y007806D03*
X012610Y008806D03*
X012610Y009806D03*
X012610Y010806D03*
X011610Y010806D03*
X010610Y010806D03*
X009610Y010806D03*
X008610Y010806D03*
X007610Y010806D03*
X006610Y010806D03*
X005610Y010806D03*
X005610Y009806D03*
X004610Y010806D03*
X003610Y010806D03*
X002610Y010806D03*
X001610Y010806D03*
D12*
X001310Y013806D02*
X001910Y013806D01*
X001910Y014806D02*
X001310Y014806D01*
X001310Y015806D02*
X001910Y015806D01*
X001910Y016806D02*
X001310Y016806D01*
X001310Y017806D02*
X001910Y017806D01*
X001910Y018806D02*
X001310Y018806D01*
X001310Y019806D02*
X001910Y019806D01*
X003810Y019806D02*
X004410Y019806D01*
X004410Y020806D02*
X003810Y020806D01*
X003810Y021806D02*
X004410Y021806D01*
X004410Y018806D02*
X003810Y018806D01*
X003810Y017806D02*
X004410Y017806D01*
X004410Y016806D02*
X003810Y016806D01*
X003810Y015806D02*
X004410Y015806D01*
X004410Y014806D02*
X003810Y014806D01*
X003810Y013806D02*
X004410Y013806D01*
X011810Y013806D02*
X012410Y013806D01*
X012410Y014806D02*
X011810Y014806D01*
X011810Y015806D02*
X012410Y015806D01*
X012410Y016806D02*
X011810Y016806D01*
X011810Y017806D02*
X012410Y017806D01*
X012410Y018806D02*
X011810Y018806D01*
X011810Y019806D02*
X012410Y019806D01*
X012410Y020806D02*
X011810Y020806D01*
X011810Y021806D02*
X012410Y021806D01*
X013810Y020806D02*
X014410Y020806D01*
X014410Y019806D02*
X013810Y019806D01*
X013810Y018806D02*
X014410Y018806D01*
D13*
X014110Y018806D02*
X012110Y018806D01*
X012610Y018306D02*
X011110Y018306D01*
X011110Y017806D01*
X011610Y017306D01*
X012110Y017306D01*
X012110Y016806D01*
X012110Y015806D02*
X011610Y015806D01*
X010110Y014306D01*
X010110Y013806D01*
X011110Y013806D02*
X009110Y011806D01*
X011110Y013806D02*
X011110Y014306D01*
X011610Y014806D01*
X012110Y014806D01*
X012110Y013806D02*
X012110Y012806D01*
X013610Y016306D02*
X013610Y005306D01*
X012610Y004806D01*
X011610Y004806D02*
X012610Y003806D01*
X013610Y003806D01*
X014610Y004806D01*
X014610Y012806D01*
X015110Y013306D02*
X014610Y014306D01*
X014610Y017306D01*
X013110Y017306D01*
X013110Y017806D01*
X012610Y018306D01*
X012110Y019806D02*
X014110Y019806D01*
X014110Y020806D02*
X012110Y020806D01*
X012110Y021806D02*
X004110Y011806D01*
X003610Y012306D02*
X001610Y012306D01*
X001610Y010806D01*
X001610Y013806D02*
X004110Y013806D01*
X004110Y014806D02*
X001610Y014806D01*
X001610Y015806D02*
X004110Y015806D01*
X004110Y016806D02*
X001610Y016806D01*
X001610Y017806D02*
X004110Y017806D01*
X004110Y018806D02*
X001610Y018806D01*
X001610Y019806D02*
X004110Y019806D01*
X004110Y020806D02*
X004110Y021306D01*
X003610Y021306D01*
X003110Y021806D01*
X003110Y022806D01*
X004110Y022806D01*
X005610Y021306D01*
X005610Y017806D01*
X006110Y017306D01*
X006110Y016806D01*
X005110Y013806D02*
X005110Y021306D01*
X004610Y021806D01*
X004110Y021806D01*
X005110Y013806D02*
X003610Y012306D01*
X003610Y006306D02*
X002610Y005306D01*
X002610Y004806D01*
X003610Y004806D02*
X003610Y003806D01*
X004610Y004306D02*
X005610Y003306D01*
X014110Y003306D01*
X014110Y003806D01*
X015110Y004806D01*
X015110Y013306D01*
X004610Y004806D02*
X004610Y004306D01*
X004110Y006306D02*
X003610Y006306D01*
D14*
X004110Y007306D02*
X001610Y004806D01*
X004110Y007306D02*
X004110Y011806D01*
X005610Y004806D02*
X011110Y010306D01*
X011110Y011306D01*
X013110Y012806D01*
X013110Y016806D01*
X012110Y017806D01*
D15*
X013610Y016306D03*
X014610Y012806D03*
X012110Y012806D03*
X010110Y013806D03*
X009110Y011806D03*
X006110Y016806D03*
X004110Y006306D03*
X003610Y003806D03*
M02*
