<?xml version="1.0" encoding="UTF-8" standalone="no"?>
<!-- Generator: Adobe Illustrator 15.1.0, SVG Export Plug-In . SVG Version: 6.00 Build 0)  -->

<svg
   xmlns:dc="http://purl.org/dc/elements/1.1/"
   xmlns:cc="http://creativecommons.org/ns#"
   xmlns:rdf="http://www.w3.org/1999/02/22-rdf-syntax-ns#"
   xmlns:svg="http://www.w3.org/2000/svg"
   xmlns="http://www.w3.org/2000/svg"
   xmlns:sodipodi="http://sodipodi.sourceforge.net/DTD/sodipodi-0.dtd"
   xmlns:inkscape="http://www.inkscape.org/namespaces/inkscape"
   version="1.1"
   id="Layer_1"
   x="0px"
   y="0px"
   width="500px"
   height="500px"
   viewBox="0 0 500 500"
   enable-background="new 0 0 500 500"
   xml:space="preserve"
   inkscape:version="0.48.1 "
   sodipodi:docname="cols.svg"><metadata
   id="metadata15"><rdf:RDF><cc:Work
       rdf:about=""><dc:format>image/svg+xml</dc:format><dc:type
         rdf:resource="http://purl.org/dc/dcmitype/StillImage" /><dc:title /></cc:Work></rdf:RDF></metadata><defs
   id="defs13">
	
	
	
</defs><sodipodi:namedview
   pagecolor="#ffffff"
   bordercolor="#666666"
   borderopacity="1"
   objecttolerance="10"
   gridtolerance="10"
   guidetolerance="10"
   inkscape:pageopacity="0"
   inkscape:pageshadow="2"
   inkscape:window-width="1280"
   inkscape:window-height="738"
   id="namedview11"
   showgrid="false"
   inkscape:zoom="1.044"
   inkscape:cx="244.37275"
   inkscape:cy="286.0344"
   inkscape:window-x="-8"
   inkscape:window-y="-8"
   inkscape:window-maximized="1"
   inkscape:current-layer="Layer_1" />
<path
   inkscape:connector-curvature="0"
   id="col1"
   d="m 44.789,408.504 0,-274.6 9.147,0 1.266,-0.431 0.875,-0.859 6.379,0 0,-82.261 93.877,93.947 -93.877,0 0,-1.687 -7.668,0 0,116.267 7.668,0 0,-76.738 93.033,93.033 -93.033,0 0,-6.295 -7.668,0 0,115.806 7.668,0 0,-79.946 5.108,5.047 86.15,86.085 5.057,5.11 -96.315,0 0,-6.296 -7.668,0 0,13.831 z"
   inkscape:label="#path5"
   style="fill:none;stroke:#000000;stroke-width:0.5;stroke-miterlimit:4;stroke-opacity:1;stroke-dasharray:none"
   sodipodi:nodetypes="ccccccccccccccccccccccccccccc" /><path
   inkscape:connector-curvature="0"
   id="col2"
   d="m 175.202,409.068 0,-275.624 9.608,0 1.094,-0.292 0.773,-0.538 9.88,0 0,-82.731 94.385,94.417 -94.386,0 0,-1.687 -11.355,0 0,116.269 11.355,0 0,-75.83 92.172,92.123 -92.171,0 0,-6.295 -11.355,0 0,115.807 11.355,0 0,-78.578 94.82,94.873 -94.819,0 0,-6.295 -11.355,0 0,14.464 z"
   inkscape:label="#path7"
   style="fill:none;stroke:#000000;stroke-width:0.5;stroke-miterlimit:4;stroke-opacity:1;stroke-dasharray:none"
   sodipodi:nodetypes="ccccccccccccccccccccccccccc" /><path
   inkscape:connector-curvature="0"
   id="col3"
   d="m 414.511,400.982 0,0.003 -94.912,0 0,-6.296 -6.284,0 0,15.811 -10,0 0,-277.517 10.069,0 0.824,-0.146 0.545,-0.223 4.847,0 0,-83.191 94.879,94.878 -94.879,0 0,-1.688 -6.284,0 0,116.267 6.284,0 0,-77.668 94.025,93.964 -94.025,0 0,-6.296 -6.284,0 0,115.806 6.284,0 0,-79.056 5.134,5.188 84.71,85.052 z"
   inkscape:label="#path9"
   style="fill:none;stroke:#000000;stroke-width:0.5;stroke-miterlimit:4;stroke-opacity:1;stroke-dasharray:none"
   sodipodi:nodetypes="cccccccccccccccccccccccccccccc" />
</svg>