<?xml version="1.0" encoding="UTF-8" standalone="no"?>
<!-- Generator: Adobe Illustrator 15.1.0, SVG Export Plug-In . SVG Version: 6.00 Build 0)  -->

<svg
   xmlns:dc="http://purl.org/dc/elements/1.1/"
   xmlns:cc="http://creativecommons.org/ns#"
   xmlns:rdf="http://www.w3.org/1999/02/22-rdf-syntax-ns#"
   xmlns:svg="http://www.w3.org/2000/svg"
   xmlns="http://www.w3.org/2000/svg"
   xmlns:sodipodi="http://sodipodi.sourceforge.net/DTD/sodipodi-0.dtd"
   xmlns:inkscape="http://www.inkscape.org/namespaces/inkscape"
   version="1.1"
   id="Layer_1"
   x="0px"
   y="0px"
   width="500px"
   height="500px"
   viewBox="0 0 500 500"
   enable-background="new 0 0 500 500"
   xml:space="preserve"
   inkscape:version="0.48.1 "
   sodipodi:docname="cols.svg"><metadata
   id="metadata15"><rdf:RDF><cc:Work
       rdf:about=""><dc:format>image/svg+xml</dc:format><dc:type
         rdf:resource="http://purl.org/dc/dcmitype/StillImage" /><dc:title></dc:title></cc:Work></rdf:RDF></metadata><defs
   id="defs13">
	
	
	
</defs><sodipodi:namedview
   pagecolor="#ffffff"
   bordercolor="#666666"
   borderopacity="1"
   objecttolerance="10"
   gridtolerance="10"
   guidetolerance="10"
   inkscape:pageopacity="0"
   inkscape:pageshadow="2"
   inkscape:window-width="1280"
   inkscape:window-height="738"
   id="namedview11"
   showgrid="false"
   inkscape:zoom="1.044"
   inkscape:cx="370.94968"
   inkscape:cy="317.39237"
   inkscape:window-x="-8"
   inkscape:window-y="-8"
   inkscape:window-maximized="1"
   inkscape:current-layer="Layer_1" />
<path
   inkscape:connector-curvature="0"
   id="col1"
   d="m 44.789,408.504 0,-274.6 9.147,0 1.266,-0.431 0.875,-0.859 6.379,0 0,-82.261 93.877,93.947 -93.877,0 0,-1.687 -7.668,0 0,116.267 7.668,0 0,-76.738 93.033,93.033 -93.033,0 0,-6.295 -7.668,0 0,115.806 7.668,0 0,-79.946 5.108,5.047 86.15,86.085 5.057,5.11 -96.315,0 0,-6.296 -7.668,0 0,13.831 z"
   inkscape:label="#path5"
   style="fill:none;stroke:#000000;stroke-width:0.5;stroke-miterlimit:4;stroke-opacity:1;stroke-dasharray:none"
   sodipodi:nodetypes="ccccccccccccccccccccccccccccc" /><path
   inkscape:connector-curvature="0"
   id="col2"
   d="m 175.202,409.068 0,-275.624 9.608,0 1.094,-0.292 0.773,-0.538 9.88,0 0,-82.731 94.385,94.417 -94.386,0 0,-1.687 -11.355,0 0,116.269 11.355,0 0,-75.83 92.172,92.123 -92.171,0 0,-6.295 -11.355,0 0,115.807 11.355,0 0,-78.578 94.82,94.873 -94.819,0 0,-6.295 -11.355,0 0,14.464 z"
   inkscape:label="#path7"
   style="fill:none;stroke:#000000;stroke-width:0.5;stroke-miterlimit:4;stroke-opacity:1;stroke-dasharray:none"
   sodipodi:nodetypes="ccccccccccccccccccccccccccc" /><path
   inkscape:connector-curvature="0"
   id="col3"
   d="m 414.511,400.982 0,0.003 -94.912,0 0,-6.296 -6.284,0 0,15.811 -10,0 0,-277.517 10.069,0 0.824,-0.146 0.545,-0.223 4.847,0 0,-83.191 94.879,94.878 -94.879,0 0,-1.688 -6.284,0 0,116.267 6.284,0 0,-77.668 94.025,93.964 -94.025,0 0,-6.296 -6.284,0 0,115.806 6.284,0 0,-79.056 5.134,5.188 84.71,85.052 z"
   inkscape:label="#path9"
   style="fill:none;stroke:#000000;stroke-width:0.5;stroke-miterlimit:4;stroke-opacity:1;stroke-dasharray:none"
   sodipodi:nodetypes="cccccccccccccccccccccccccccccc" />
<path
   stroke-miterlimit="10"
   d="m 416.23773,159.04186 c -3.625,4.628 -10.499,18.135 2.133,16.73 l 0,91.386 c -30.352,-30.593 -60.964,-60.928 -91.454,-91.385 l 57.769,0 c 11.168,0.291 27.437,3.013 21.81,-14.394 -35.391,0.131 -70.822,-0.27 -106.186,0.214 -15.643,-9.704 -22.506,18.95 -4.981,14.18 l 0,93.209 c -30.951,-31.216 -62.212,-62.125 -93.295,-93.211 l 56.386,0 c 11.167,0.291 27.436,3.013 21.81,-14.394 -37.174,0.072 -74.36,-0.146 -111.527,0.116 -14.722,-8.783 -24.854,16.519 -7.476,14.278 l 0,92.383 c -30.795,-30.794 -61.589,-61.589 -92.383996,-92.383 l 56.857996,0 c 11.168,0.291 27.436,3.013 21.81,-14.394 l -81.483996,0 0,-4.999 323.263996,0 c 8.985,1.08 18.716,-1.956 27.009,0.867 -0.115,0.59 -0.135,1.199 -0.062,1.797 z"
   id="row2"
   inkscape:connector-curvature="0"
   style="fill:none;stroke:#000000;stroke-width:0.5;stroke-miterlimit:10;stroke-dasharray:none"
   sodipodi:nodetypes="ccccccccccccccccccccccc"
   inkscape:label="#path6" /><path
   stroke-miterlimit="10"
   d="m 416.67973,22.03686 c -8.655,-1.476995 -8.269,28.027 1.692,22.858 l 0,90.543 c -30.182,-30.18 -60.361,-60.361 -90.542,-90.543 l 78.667,0 0,-22.228 -103.097,0 c -19.324,-10.536995 -27.933,24.483 -8.07,22.228 l 0,91.052 c -30.53,-30.16 -60.874,-60.509 -91.02,-91.052 l 75.921,0 0,-22.228 -110.764,0 c -18.851,-10.834995 -25.507,24.233 -8.239,22.228 l 0,91.545 c -30.619,-30.387 -60.982,-61.03 -91.471996,-91.545 l 77.754996,0 0,-22.228 -81.483996,0 0,-4.999995 322.058996,0 c 8.944,2.16 25.098,-4.633 29.498,3.042 -0.377,0.389 -0.68,0.838 -0.904,1.327995 z"
   id="row1"
   inkscape:connector-curvature="0"
   style="fill:none;stroke:#000000;stroke-width:0.5;stroke-miterlimit:10;stroke-dasharray:none"
   sodipodi:nodetypes="ccccccccccccccccccccccc"
   inkscape:label="#path8" /><path
   stroke-miterlimit="10"
   d="m 417.24673,286.56586 c -4.464,2.699 -11.617,17.367 1.125,15.01 v 90.488 c -29.954,-30.24 -60.172,-60.216 -90.097,-90.486 h 53.992 c 9.67,-0.955 29.119,5.222 24.23,-11.629 h -107.934 c -14.198,-6.59 -20.004,14.891 -3.235,11.629 v 90.615 c -30.317,-30.072 -60.367,-60.409 -90.549,-90.615 h 51.221 c 9.669,-0.955 29.119,5.222 24.23,-11.629 h -113.174 c -12.698,-6.393 -22.267,14.1 -5.829,11.629 v 89.062 c -29.539,-29.86 -59.25,-59.55 -89.134996,-89.063 h 51.187996 c 9.671,-0.954 29.12,5.223 24.231,-11.629 H 66.026734 v -5 H 380.80773 c 12.166,0.844 24.792,-1.699 36.521,1.16 -0.034,0.151 -0.061,0.304 -0.082,0.458 z"
   id="row3"
   inkscape:connector-curvature="0"
   style="fill:none;stroke:#000000;stroke-width:0.5;stroke-miterlimit:10;stroke-dasharray:none"
   inkscape:label="#path10" /></svg>