<?xml version="1.0" encoding="UTF-8" standalone="no"?>
<!-- Generator: Adobe Illustrator 15.1.0, SVG Export Plug-In . SVG Version: 6.00 Build 0)  -->

<svg
   xmlns:dc="http://purl.org/dc/elements/1.1/"
   xmlns:cc="http://creativecommons.org/ns#"
   xmlns:rdf="http://www.w3.org/1999/02/22-rdf-syntax-ns#"
   xmlns:svg="http://www.w3.org/2000/svg"
   xmlns="http://www.w3.org/2000/svg"
   xmlns:sodipodi="http://sodipodi.sourceforge.net/DTD/sodipodi-0.dtd"
   xmlns:inkscape="http://www.inkscape.org/namespaces/inkscape"
   version="1.1"
   id="Layer_1"
   inkscape:version="0.48.1 "
   sodipodi:docname="rows.svg"
   x="0px"
   y="0px"
   width="500px"
   height="500px"
   viewBox="0 0 500 500"
   enable-background="new 0 0 500 500"
   xml:space="preserve"><metadata
   id="metadata14"><rdf:RDF><cc:Work
       rdf:about=""><dc:format>image/svg+xml</dc:format><dc:type
         rdf:resource="http://purl.org/dc/dcmitype/StillImage" /><dc:title></dc:title></cc:Work></rdf:RDF></metadata><defs
   id="defs12">
	

		
		
		
	</defs>
<sodipodi:namedview
   bordercolor="#666666"
   borderopacity="1"
   id="namedview3043"
   inkscape:window-height="738"
   objecttolerance="10"
   pagecolor="#ffffff"
   gridtolerance="10"
   guidetolerance="10"
   inkscape:pageopacity="0"
   inkscape:pageshadow="2"
   inkscape:window-width="1280"
   showgrid="false"
   inkscape:cy="286.26456"
   inkscape:zoom="1.3350176"
   inkscape:cx="214.09285"
   inkscape:window-x="-8"
   inkscape:window-y="-8"
   inkscape:window-maximized="1"
   inkscape:current-layer="Layer_1">
	</sodipodi:namedview>
<path
   stroke-miterlimit="10"
   d="m 413.711,162.202 c -3.625,4.628 -10.499,18.135 2.133,16.73 l 0,91.386 C 385.492,239.725 354.88,209.39 324.39,178.933 l 57.769,0 c 11.168,0.291 27.437,3.013 21.81,-14.394 -35.391,0.131 -70.822,-0.27 -106.186,0.214 -15.643,-9.704 -22.506,18.95 -4.981,14.18 l 0,93.209 C 261.851,240.926 230.59,210.017 199.507,178.931 l 56.386,0 c 11.167,0.291 27.436,3.013 21.81,-14.394 -37.174,0.072 -74.36,-0.146 -111.527,0.116 -14.722,-8.783 -24.854,16.519 -7.476,14.278 l 0,92.383 C 127.905,240.52 97.111,209.725 66.316,178.931 l 56.858,0 c 11.168,0.291 27.436,3.013 21.81,-14.394 l -81.484,0 0,-4.999 323.264,0 c 8.985,1.08 18.716,-1.956 27.009,0.867 -0.115,0.59 -0.135,1.199 -0.062,1.797 z"
   id="row2"
   inkscape:connector-curvature="0"
   style="stroke:#000000;stroke-width:0.5;stroke-miterlimit:10;fill:none;stroke-dasharray:none"
   sodipodi:nodetypes="ccccccccccccccccccccccc"
   inkscape:label="#path6" /><path
   stroke-miterlimit="10"
   d="m 414.153,25.197 c -8.655,-1.477 -8.269,28.027 1.692,22.858 l 0,90.543 C 385.663,108.418 355.484,78.237 325.303,48.055 l 78.667,0 0,-22.228 -103.097,0 C 281.549,15.29 272.94,50.31 292.803,48.055 l 0,91.052 c -30.53,-30.16 -60.874,-60.509 -91.02,-91.052 l 75.921,0 0,-22.228 -110.764,0 C 148.089,14.992 141.433,50.06 158.701,48.055 l 0,91.545 C 128.082,109.213 97.719,78.57 67.229,48.055 l 77.755,0 0,-22.228 -81.484,0 0,-5 322.059,0 c 8.944,2.16 25.098,-4.633 29.498,3.042 -0.377,0.389 -0.68,0.838 -0.904,1.328 z"
   id="row1"
   inkscape:connector-curvature="0"
   style="stroke:#000000;stroke-width:0.5;stroke-miterlimit:10;fill:none;stroke-dasharray:none"
   sodipodi:nodetypes="ccccccccccccccccccccccc"
   inkscape:label="#path8" /><path
   stroke-miterlimit="10"
   d="m 414.72,289.726 c -4.464,2.699 -11.617,17.367 1.125,15.01 v 90.488 c -29.954,-30.24 -60.172,-60.216 -90.097,-90.486 h 53.992 c 9.67,-0.955 29.119,5.222 24.23,-11.629 H 296.036 c -14.198,-6.59 -20.004,14.891 -3.235,11.629 v 90.615 c -30.317,-30.072 -60.367,-60.409 -90.549,-90.615 h 51.221 c 9.669,-0.955 29.119,5.222 24.23,-11.629 H 164.529 c -12.698,-6.393 -22.267,14.1 -5.829,11.629 V 393.8 C 129.161,363.94 99.45,334.25 69.565,304.737 h 51.188 c 9.671,-0.954 29.12,5.223 24.231,-11.629 H 63.5 v -5 h 314.781 c 12.166,0.844 24.792,-1.699 36.521,1.16 -0.034,0.151 -0.061,0.304 -0.082,0.458 z"
   id="row3"
   inkscape:connector-curvature="0"
   style="stroke:#000000;stroke-width:0.5;stroke-miterlimit:10;fill:none;stroke-dasharray:none"
   inkscape:label="#path10" />
</svg>