<?xml version="1.0" encoding="UTF-8" standalone="no"?>
<!-- Created with Inkscape (http://www.inkscape.org/) -->

<svg
   xmlns:dc="http://purl.org/dc/elements/1.1/"
   xmlns:cc="http://creativecommons.org/ns#"
   xmlns:rdf="http://www.w3.org/1999/02/22-rdf-syntax-ns#"
   xmlns:svg="http://www.w3.org/2000/svg"
   xmlns="http://www.w3.org/2000/svg"
   xmlns:sodipodi="http://sodipodi.sourceforge.net/DTD/sodipodi-0.dtd"
   xmlns:inkscape="http://www.inkscape.org/namespaces/inkscape"
   id="svg2"
   version="1.1"
   inkscape:version="0.48.1 "
   width="382.5"
   height="112.50125"
   xml:space="preserve"
   sodipodi:docname="slider.svg"><metadata
     id="metadata8"><rdf:RDF><cc:Work
         rdf:about=""><dc:format>image/svg+xml</dc:format><dc:type
           rdf:resource="http://purl.org/dc/dcmitype/StillImage" /><dc:title /></cc:Work></rdf:RDF></metadata><defs
     id="defs6"><clipPath
       clipPathUnits="userSpaceOnUse"
       id="clipPath16"><path
         d="m 0,90.001 306,0 L 306,0 0,0 0,90.001 z"
         id="path18" /></clipPath></defs><sodipodi:namedview
     pagecolor="#ffffff"
     bordercolor="#666666"
     borderopacity="1"
     objecttolerance="10"
     gridtolerance="10"
     guidetolerance="10"
     inkscape:pageopacity="0"
     inkscape:pageshadow="2"
     inkscape:window-width="1280"
     inkscape:window-height="738"
     id="namedview4"
     showgrid="false"
     inkscape:zoom="2.6666667"
     inkscape:cx="182.2618"
     inkscape:cy="71.743705"
     inkscape:window-x="-8"
     inkscape:window-y="-8"
     inkscape:window-maximized="1"
     inkscape:current-layer="g10" /><g
     id="g10"
     inkscape:groupmode="layer"
     inkscape:label="interdigitatedround"
     transform="matrix(1.25,0,0,-1.25,0,112.50125)"><path
       inkscape:connector-curvature="0"
       id="seg1"
       style="fill:none;stroke:#000000;stroke-width:0.93673146;stroke-linecap:butt;stroke-linejoin:miter;stroke-miterlimit:10;stroke-opacity:1;stroke-dasharray:none"
       d="m 94.477107,80.7686 c -2.735939,-0.01 -0.8167,0.151 -3.525447,-0.284 l -44.603162,-7.818 c -2.703101,-0.473797 -2.709615,-1.149 -8.78e-4,-1.587 l 45.429917,-7.345 c 2.708737,-0.438 2.708737,-1.155 0,-1.595 L 46.34762,54.7686 c -2.708737,-0.439 -2.710492,-1.169 -0.0035,-1.621 l 45.436937,-7.59 c 2.706982,-0.452 2.706982,-1.192 0,-1.644 l -45.436937,-7.59 c -2.706982,-0.452 -2.68329,-0.823 0.05265,-0.823 l 53.92515,0 c 2.73594,0 7.1882,0.381 9.8943,0.846 l 45.4422,7.809 c 2.70523,0.465 2.7026,1.206 -0.006,1.647 l -45.43079,7.397 c -2.70874,0.441 -2.70874,1.162 0,1.603 l 45.43079,7.397 c 2.70874,0.441 2.70874,1.162 0,1.603 l -45.43079,7.397 c -2.70874,0.441 -2.70874,1.162 0,1.603 l 45.43079,7.397 c 2.70874,0.441 2.6868,0.794 -0.0491,0.784 l -61.126021,-0.215 z"
       sodipodi:nodetypes="ccsccccccccssccscccccccccc"
       inkscape:label="#path22" /><path
       sodipodi:nodetypes="cssssssssssccccsccccsssssssccccccsscc"
       inkscape:connector-curvature="0"
       id="outer"
       style="fill:none;stroke:#000000;stroke-width:1;stroke-linecap:butt;stroke-linejoin:miter;stroke-miterlimit:10;stroke-opacity:1;stroke-dasharray:none"
       d="m 75.0063,79.7427 c 3.09,0.417 3.067,0.758 -0.051,0.758 l -60.786,0 c -3.119,0 -5.67,-2.551 -5.67,-5.669 l 0,-60.662 c 0,-3.118 2.551,-5.669 5.67,-5.669 l 276.661,0 c 3.118,0 5.669,2.551 5.669,5.669 l 0,60.662 c 0,3.118 -2.551,5.669 -5.669,5.669 l -15.162,0 c -3.118,0 -8.197,-0.341 -11.287,-0.758 l -51.764,-6.984 c -3.09,-0.417 -3.092,-1.119 -0.006,-1.56 l 51.776,-7.396 c 3.087,-0.441 3.087,-1.163 0,-1.604 l -51.776,-7.397 c -3.086,-0.441 -3.087,-1.172 -0.002,-1.625 l 51.781,-7.602 c 3.085,-0.454 3.085,-1.195 0,-1.647 l -51.781,-7.603 c -3.085,-0.453 -3.059,-0.824 0.059,-0.824 l 51.162,0 c 3.118,0 5.669,-2.025 5.669,-4.5 0,-2.474 -2.551,-4.5 -5.669,-4.5 l -240.661,0 c -3.119,0 -5.67,2.138 -5.67,4.75 0,2.613 2.526,5.109 5.613,5.546 l 52.274,7.407 c 3.088,0.438 3.088,1.157 10e-4,1.598 l -51.775,7.397 c -3.087,0.441 -3.087,1.162 0,1.603 l 51.775,7.397 c 3.087,0.441 3.087,1.163 0,1.604 l -51.775,7.396 c -3.087,0.441 -3.084,1.143 0.006,1.56 z"
       inkscape:label="#path30" /><path
       inkscape:connector-curvature="0"
       id="seg2"
       style="fill:none;stroke:#000000;stroke-width:0.93673146;stroke-linecap:butt;stroke-linejoin:miter;stroke-miterlimit:10;stroke-opacity:1;stroke-dasharray:none"
       d="m 179.68985,80.898743 c -2.73594,-0.01 -0.8167,0.151 -3.52545,-0.284 l -44.60316,-7.818 c -2.7031,-0.473797 -2.70962,-1.149 -8.8e-4,-1.587 l 45.42992,-7.345 c 2.70873,-0.438 2.70873,-1.155 0,-1.595 l -45.42992,-7.371 c -2.70874,-0.439 -2.71049,-1.169 -0.004,-1.621 l 45.43694,-7.59 c 2.70698,-0.452 2.70698,-1.192 0,-1.644 l -45.43694,-7.59 c -2.70698,-0.452 -2.68329,-0.823 0.0526,-0.823 l 53.92515,0 c 2.73594,0 7.1882,0.381 9.8943,0.846 l 45.4422,7.809 c 2.70523,0.465 2.7026,1.206 -0.006,1.647 l -45.43079,7.397 c -2.70874,0.441 -2.70874,1.162 0,1.603 l 45.43079,7.397 c 2.70873,0.441 2.70873,1.162 0,1.603 l -45.43079,7.397 c -2.70874,0.441 -2.70874,1.162 0,1.603 l 45.4304,7.397 c 2.70873,0.441 2.6868,0.794 -0.0491,0.784 l -61.12602,-0.215 z"
       sodipodi:nodetypes="ccsccccccccssccscccccccccc"
       inkscape:label="#path22-8" /></g></svg>